<svg width="20" height="21" viewBox="0 0 20 21" fill="none" xmlns="http://www.w3.org/2000/svg">
<path d="M9 9.77001V5.75592H11V9.77001H15V11.7771H11V15.7911H9V11.7771H5V9.77001H9ZM10 20.8088C4.477 20.8088 0 16.316 0 10.7735C0 5.23108 4.477 0.738312 10 0.738312C15.523 0.738312 20 5.23108 20 10.7735C20 16.316 15.523 20.8088 10 20.8088ZM10 18.8017C12.1217 18.8017 14.1566 17.9559 15.6569 16.4503C17.1571 14.9447 18 12.9027 18 10.7735C18 8.64433 17.1571 6.60233 15.6569 5.09676C14.1566 3.59118 12.1217 2.74536 10 2.74536C7.87827 2.74536 5.84344 3.59118 4.34315 5.09676C2.84285 6.60233 2 8.64433 2 10.7735C2 12.9027 2.84285 14.9447 4.34315 16.4503C5.84344 17.9559 7.87827 18.8017 10 18.8017Z" fill="white"/>
</svg>
